Hanif_Medium_5_0_grf.mot
version=1
nRows=21
nColumns=19
inDegrees=yes
endheader
time	right_ground_force_vx	right_ground_force_vy	right_ground_force_vz	right_ground_force_px	right_ground_force_py	right_ground_force_pz	right_ground_torque_x	right_ground_torque_y	right_ground_torque_z	left_ground_force_vx	left_ground_force_vy	left_ground_force_vz	left_ground_force_px	left_ground_force_py	left_ground_force_pz	left_ground_torque_x	left_ground_torque_y	left_ground_torque_z
3.275000	-8.652200	236.114000	51.882800	0.243818	0.000000	-1.410750	-22.508500	-2.567790	10.462500	7.821180	251.635000	-64.916500	0.221426	0.000000	-0.983155	20.040900	-3.381120	6.460760
3.280000	-8.508480	236.862000	51.939100	0.242896	0.000000	-1.411850	-22.318700	-2.545910	10.266500	8.892400	255.078000	-65.581200	0.222143	0.000000	-0.982338	20.087700	-3.544790	6.751480
3.285000	-8.239120	236.041000	52.421400	0.242016	0.000000	-1.411760	-22.258100	-2.568060	10.008800	9.555490	256.294000	-66.417700	0.221826	0.000000	-0.982713	20.270600	-3.583820	6.700840
3.290000	-8.058660	236.081000	52.843300	0.243104	0.000000	-1.413190	-21.932500	-2.383680	10.319800	9.330620	256.006000	-66.640100	0.222771	0.000000	-0.981550	19.947000	-3.667720	6.988340
3.295000	-6.767490	241.477000	53.544900	0.242503	0.000000	-1.414520	-22.105100	-2.346180	10.385200	9.897150	255.567000	-66.134900	0.222322	0.000000	-0.983130	20.309700	-3.676370	6.832970
3.300000	-6.703010	245.101000	54.234600	0.240301	0.000000	-1.414230	-22.507400	-2.260130	9.997480	10.340500	257.397000	-66.370900	0.222051	0.000000	-0.983057	20.429500	-3.766320	6.811020
3.305000	-6.212020	245.125000	53.725800	0.241424	0.000000	-1.412930	-22.828900	-2.167660	10.293500	10.700700	259.092000	-66.396200	0.222578	0.000000	-0.982410	20.389000	-3.845080	7.001520
3.310000	-5.655310	245.906000	53.838200	0.241289	0.000000	-1.412220	-23.077600	-2.047380	10.307700	10.374600	259.920000	-65.605600	0.222430	0.000000	-0.981870	20.317800	-3.907510	6.981050
3.315000	-5.386520	248.727000	54.289000	0.240259	0.000000	-1.413120	-23.116200	-2.023760	10.158100	10.156600	258.915000	-64.965300	0.222777	0.000000	-0.981599	20.170100	-3.916580	7.050940
3.320000	-6.251810	252.397000	55.257400	0.240113	0.000000	-1.412450	-23.630000	-2.094640	10.279100	9.963710	258.618000	-65.417200	0.224022	0.000000	-0.982892	20.479700	-3.944490	7.406560
3.325000	-6.713320	257.356000	56.424000	0.241042	0.000000	-1.413880	-23.729100	-2.102200	10.744700	10.184000	261.366000	-64.983600	0.224767	0.000000	-0.983603	20.882100	-3.956210	7.652820
3.330000	-7.216820	262.797000	57.679100	0.240585	0.000000	-1.414090	-24.174500	-2.206740	10.840800	9.877310	262.424000	-64.123000	0.224968	0.000000	-0.982941	20.796200	-4.032280	7.735800
3.335000	-7.315650	264.667000	58.481600	0.240700	0.000000	-1.414020	-24.368400	-2.165770	10.968000	9.109190	265.454000	-63.817000	0.225725	0.000000	-0.982459	20.923400	-4.011120	8.013750
3.340000	-7.039180	267.855000	59.296900	0.239931	0.000000	-1.414080	-24.645600	-2.124810	10.892600	8.416930	264.667000	-62.799600	0.225428	0.000000	-0.983527	21.153300	-4.099880	7.920750
3.345000	-7.921700	268.651000	59.503700	0.239920	0.000000	-1.414560	-24.591600	-2.245780	10.913800	7.891000	267.248000	-62.818000	0.225859	0.000000	-0.983005	21.231800	-4.059870	8.098470
3.350000	-8.150270	269.872000	59.932400	0.240025	0.000000	-1.415290	-24.509600	-2.194070	11.011200	6.580670	268.980000	-61.953100	0.226675	0.000000	-0.983271	21.465300	-4.024610	8.360920
3.355000	-9.126340	271.077000	59.669500	0.239669	0.000000	-1.414980	-24.707000	-2.240220	10.964200	5.449530	270.630000	-60.850500	0.226691	0.000000	-0.982724	21.470100	-4.056200	8.402920
3.360000	-10.287800	270.942000	59.509200	0.239911	0.000000	-1.414160	-24.921700	-2.345400	11.027500	4.431260	270.143000	-59.921800	0.227276	0.000000	-0.982817	21.474000	-4.087040	8.559150
3.365000	-10.496000	273.866000	59.401300	0.238864	0.000000	-1.415850	-24.725700	-2.312240	10.847900	3.332760	271.294000	-58.452800	0.227941	0.000000	-0.982545	21.512800	-4.104750	8.759400
3.370000	-11.564600	276.593000	59.666300	0.239388	0.000000	-1.416890	-24.687000	-2.397710	11.106500	1.909310	274.984000	-58.129600	0.227835	0.000000	-0.982854	21.919100	-4.236730	8.859660
3.375000	-12.791300	276.417000	59.151500	0.239027	0.000000	-1.416310	-24.842900	-2.324410	11.029700	0.918629	276.419000	-56.787500	0.228487	0.000000	-0.983185	22.145600	-4.213360	9.057270
